<svg width="382" height="382" viewBox="0 0 382 382" fill="none" xmlns="http://www.w3.org/2000/svg">
<path d="M381 191C381 295.934 295.934 381 191 381C86.0659 381 1 295.934 1 191C1 86.0659 86.0659 1 191 1C295.934 1 381 86.0659 381 191Z" fill="#283036" fill-opacity="0.3"/>
<path fill-rule="evenodd" clip-rule="evenodd" d="M382 191C382 296.486 296.486 382 191 382C85.5136 382 0 296.486 0 191C0 85.5136 85.5136 0 191 0C296.486 0 382 85.5136 382 191ZM191 381C295.934 381 381 295.934 381 191C381 86.0659 295.934 1 191 1C86.0659 1 1 86.0659 1 191C1 295.934 86.0659 381 191 381Z" fill="white" fill-opacity="0.03"/>
<path d="M343.826 191C343.826 275.404 275.404 343.826 191 343.826C106.596 343.826 38.1739 275.404 38.1739 191C38.1739 106.596 106.596 38.1739 191 38.1739C275.404 38.1739 343.826 106.596 343.826 191Z" fill="#283036" fill-opacity="0.4"/>
<path fill-rule="evenodd" clip-rule="evenodd" d="M344.826 191C344.826 275.956 275.956 344.826 191 344.826C106.044 344.826 37.1739 275.956 37.1739 191C37.1739 106.044 106.044 37.1739 191 37.1739C275.956 37.1739 344.826 106.044 344.826 191ZM191 343.826C275.404 343.826 343.826 275.404 343.826 191C343.826 106.596 275.404 38.1739 191 38.1739C106.596 38.1739 38.1739 106.596 38.1739 191C38.1739 275.404 106.596 343.826 191 343.826Z" fill="white" fill-opacity="0.03"/>
<path d="M306.652 191C306.652 254.873 254.873 306.652 191 306.652C127.127 306.652 75.3478 254.873 75.3478 191C75.3478 127.127 127.127 75.3478 191 75.3478C254.873 75.3478 306.652 127.127 306.652 191Z" fill="#283036"/>
</svg>
