<svg width="20" height="20" viewBox="0 0 20 20" fill="none" xmlns="http://www.w3.org/2000/svg">
<path fill-rule="evenodd" clip-rule="evenodd" d="M9 2C5.13401 2 2 5.13401 2 9C2 12.866 5.13401 16 9 16C12.866 16 16 12.866 16 9C16 5.13401 12.866 2 9 2ZM0 9C0 4.02944 4.02944 0 9 0C13.9706 0 18 4.02944 18 9C18 13.9706 13.9706 18 9 18C4.02944 18 0 13.9706 0 9Z" fill="white" fill-opacity="0.38"/>
<path fill-rule="evenodd" clip-rule="evenodd" d="M13.9429 13.9428C14.3334 13.5523 14.9666 13.5523 15.3571 13.9428L19.7071 18.2928C20.0976 18.6833 20.0976 19.3165 19.7071 19.707C19.3166 20.0975 18.6834 20.0975 18.2929 19.707L13.9429 15.357C13.5524 14.9665 13.5524 14.3333 13.9429 13.9428Z" fill="white" fill-opacity="0.38"/>
</svg>
