<svg width="589" height="568" viewBox="0 0 589 568" fill="none" xmlns="http://www.w3.org/2000/svg">
<g opacity="0.2">
<path d="M335.43 255.344C328.204 251.179 323.019 251.094 319.874 255.004C316.644 258.915 315.114 265.546 315.114 274.812V324.969C315.114 334.49 314.264 342.397 312.478 348.687C310.693 355.233 307.718 359.824 303.638 362.544C299.643 365.35 294.202 366.03 287.317 364.755C280.602 363.565 272.186 359.994 262.155 354.213L257.395 351.408V311.877L263.43 315.363C270.656 319.528 275.416 320.038 277.796 317.063C280.346 314.088 281.622 307.967 281.622 298.7V254.494C281.622 242.932 282.727 233.836 285.022 227.205C287.232 220.489 291.737 216.239 298.453 214.368C291.737 204.762 287.232 195.241 285.022 185.974C282.812 176.708 281.707 166.336 281.707 154.775V110.568C281.707 101.302 280.431 93.6511 277.881 87.7852C275.501 82.0044 270.656 76.9887 263.516 72.8231L257.48 69.3376V29.807L262.24 32.6124C272.271 38.3932 280.687 44.5991 287.402 51.145C294.287 57.776 299.728 64.7469 303.723 72.228C307.888 79.7091 310.863 87.7002 312.563 96.2864C314.349 104.618 315.199 113.544 315.199 123.065V173.222C315.199 182.489 316.814 190.99 319.959 198.556C323.189 206.122 328.374 212.073 335.515 216.154L335.43 255.344Z" fill="url(#paint0_linear_31584_53)"/>
<path d="M153.349 110.058C160.574 114.224 165.759 114.309 168.905 110.398C172.135 106.488 173.665 99.8568 173.665 90.5905V40.4334C173.665 30.912 174.515 23.0059 176.3 16.715C178.085 10.169 180.975 5.57839 184.97 2.77299C189.136 0.0526013 194.576 -0.627496 201.291 0.562674C208.177 1.83786 216.677 5.40837 226.708 11.2742L231.468 14.0796V53.6102L225.433 50.1247C218.207 45.9591 213.362 45.3641 210.812 48.3395C208.432 51.3999 207.242 57.5208 207.242 66.8721V111.078C207.242 122.555 206.137 131.736 203.842 138.367C201.631 145.083 197.126 149.334 190.411 151.204C197.126 160.811 201.631 170.332 203.842 179.598C206.052 188.865 207.157 199.236 207.157 210.798V255.004C207.157 264.27 208.347 271.836 210.727 277.702C213.277 283.568 218.122 288.669 225.348 292.749L231.383 296.235V335.766L226.623 332.96C216.592 327.179 208.092 320.888 201.206 314.342C194.491 307.797 189.051 300.826 184.885 293.259C180.89 285.863 178 277.872 176.3 269.371C174.515 261.04 173.665 252.114 173.665 242.592V192.435C173.665 183.169 172.05 174.668 168.905 167.101C165.674 159.535 160.489 153.585 153.349 149.504V110.058Z" fill="url(#paint1_linear_31584_53)"/>
<path d="M359.996 10.9343L539.442 114.564L539.357 544.81L359.911 441.266L359.996 10.9343Z" fill="url(#paint2_linear_31584_53)"/>
<path d="M326.249 67.2972L469.058 149.674V189.205L326.249 106.828V67.2972Z" fill="#587298"/>
<path d="M383.373 250.329L518.701 328.455V448.067L383.373 369.941V250.329Z" fill="url(#paint3_linear_31584_53)"/>
<path d="M382.012 158.6L519.38 237.916V251.433L382.012 172.117V158.6Z" fill="white"/>
<path d="M382.012 185.804L500.764 254.324V267.841L382.012 199.321V185.804Z" fill="white"/>
<path d="M382.012 212.668L482.828 270.816V284.333L382.012 226.185V212.668Z" fill="white"/>
<path d="M359.996 10.9343L539.442 114.564V172.202L359.911 68.6575L359.996 10.9343Z" fill="url(#paint4_linear_31584_53)"/>
<path d="M404.794 66.0221C404.794 74.7783 399.693 78.8589 393.403 75.2034C387.113 71.5478 382.012 61.6014 382.012 52.8452C382.012 44.0889 387.113 40.0083 393.403 43.6639C399.693 47.3194 404.794 57.3508 404.794 66.0221Z" fill="white"/>
<path d="M36.6372 142.703L589 461.499L588.915 892L36.5522 573.205L36.6372 142.703Z" fill="url(#paint5_linear_31584_53)"/>
<path d="M0 248.798L142.723 331.175V370.705L0 288.414V248.798Z" fill="#EA8C4F"/>
<path d="M73.8689 357.444L390.768 540.39V553.907L73.8689 370.961V357.444Z" fill="white"/>
<path d="M73.8689 384.648L347.245 542.43V555.947L73.8689 398.165V384.648Z" fill="white"/>
<path d="M73.8689 411.596L306.528 545.916V559.432L73.8689 425.113V411.596Z" fill="white"/>
<path d="M287.742 582.981L566.389 743.824V863.436L287.742 702.593V582.981Z" fill="url(#paint6_linear_31584_53)"/>
<path d="M308.739 618.771L350.731 642.999V682.53L308.739 658.302V618.771Z" fill="white"/>
<path d="M360.167 650.395L402.159 674.624V714.154L360.167 689.926V650.395Z" fill="white"/>
<path d="M411.85 679.724L453.842 703.953V743.484L411.85 719.255V679.724Z" fill="white"/>
<path d="M463.532 710.924L505.525 735.153V774.683L463.532 750.455V710.924Z" fill="white"/>
<path d="M22.0158 425.028L253.995 558.923V678.535L22.0158 544.555V425.028Z" fill="url(#paint7_linear_31584_53)"/>
<path d="M45.3922 469.15L229.683 575.5V589.017L45.3922 482.667V469.15Z" fill="white"/>
<path d="M45.3922 496.354L192.961 581.536V595.053L45.3922 509.786V496.354Z" fill="white"/>
<path d="M36.6372 142.703L588.235 461.159V519.477L36.6368 201.106L36.6372 142.703Z" fill="url(#paint8_linear_31584_53)"/>
<path d="M96.7358 206.547C96.7358 215.304 91.6355 219.384 85.3451 215.729C79.0547 212.073 73.9544 202.127 73.9544 193.37C73.9544 184.614 79.0547 180.534 85.3451 184.189C91.6355 187.845 96.7358 197.876 96.7358 206.547Z" fill="white"/>
</g>
<defs>
<linearGradient id="paint0_linear_31584_53" x1="957.281" y1="-31.7148" x2="790.269" y2="789.431" gradientUnits="userSpaceOnUse">
<stop stop-color="#424C57"/>
<stop offset="0.903" stop-color="white" stop-opacity="0"/>
</linearGradient>
<linearGradient id="paint1_linear_31584_53" x1="1135.74" y1="4.01771" x2="968.887" y2="824.694" gradientUnits="userSpaceOnUse">
<stop stop-color="#414B56"/>
<stop offset="0.903" stop-color="white" stop-opacity="0"/>
</linearGradient>
<linearGradient id="paint2_linear_31584_53" x1="600.071" y1="176.411" x2="420.881" y2="785.952" gradientUnits="userSpaceOnUse">
<stop stop-color="white"/>
<stop offset="1" stop-color="white" stop-opacity="0"/>
</linearGradient>
<linearGradient id="paint3_linear_31584_53" x1="407.282" y1="243.398" x2="188.347" y2="609.329" gradientUnits="userSpaceOnUse">
<stop stop-color="white"/>
<stop offset="1" stop-color="white" stop-opacity="0"/>
</linearGradient>
<linearGradient id="paint4_linear_31584_53" x1="202.13" y1="4.94431" x2="625.82" y2="716.37" gradientUnits="userSpaceOnUse">
<stop stop-color="#424C58"/>
<stop offset="1" stop-color="white" stop-opacity="0"/>
</linearGradient>
<linearGradient id="paint5_linear_31584_53" x1="393.86" y1="253.748" x2="280.052" y2="430.363" gradientUnits="userSpaceOnUse">
<stop stop-color="white"/>
<stop offset="1" stop-color="white" stop-opacity="0"/>
</linearGradient>
<linearGradient id="paint6_linear_31584_53" x1="349.293" y1="303.317" x2="175.837" y2="503.019" gradientUnits="userSpaceOnUse">
<stop stop-color="white"/>
<stop offset="1" stop-color="white" stop-opacity="0"/>
</linearGradient>
<linearGradient id="paint7_linear_31584_53" x1="360.215" y1="288.015" x2="171.141" y2="524.366" gradientUnits="userSpaceOnUse">
<stop stop-color="#434D58"/>
<stop offset="1" stop-color="white" stop-opacity="0"/>
</linearGradient>
<linearGradient id="paint8_linear_31584_53" x1="146.144" y1="-111.246" x2="692.605" y2="306.23" gradientUnits="userSpaceOnUse">
<stop stop-color="#546F94"/>
<stop offset="1" stop-color="white" stop-opacity="0"/>
</linearGradient>
</defs>
</svg>
