<svg width="64" height="57" viewBox="0 0 64 57" fill="none" xmlns="http://www.w3.org/2000/svg">
<path d="M32 0L13.9637 1.87248L0 20.2781L32 56.867L64 20.2779L50.0365 1.87248L32 0Z" fill="#FDB300"/>
<path d="M0 20.2781L32 56.867L12.9615 20.2782L0 20.2781Z" fill="#EB6C00"/>
<path d="M51.0382 20.2782L32 56.867L64 20.2779L51.0382 20.2782Z" fill="#EB6C00"/>
<path d="M12.9615 20.2782L32 56.867L51.0382 20.2782H12.9615Z" fill="#FDAD00"/>
<path d="M13.9637 1.87248L12.9615 20.2782L32 0L13.9637 1.87248Z" fill="#FDD231"/>
<path d="M51.0382 20.2782L50.0365 1.87248L32 0L51.0382 20.2782Z" fill="#FDD231"/>
<path d="M51.0382 20.2782L64 20.2779L50.0365 1.87248L51.0382 20.2782Z" fill="#FDAD00"/>
<path d="M0 20.2781L12.9615 20.2782L13.9637 1.87248L0 20.2781Z" fill="#FDAD00"/>
<path d="M32 0L12.9615 20.2782H51.0382L32 0Z" fill="#FEEEB7"/>
</svg>
