<svg width="16" height="16" viewBox="0 0 16 16" fill="none" xmlns="http://www.w3.org/2000/svg">
<rect width="16" height="16" rx="8" fill="#FF6E30"/>
<path fill-rule="evenodd" clip-rule="evenodd" d="M8.40608 5.23608C8.26611 5.23608 8.13005 5.25336 8 5.28587C8.08372 4.53068 8.38516 3.84159 8.84053 3.28198C10.6514 3.4966 12.0561 5.03762 12.0561 6.90641V9.57019C11.9834 9.57427 11.9101 9.57633 11.8363 9.57633C10.3876 9.57633 9.12461 8.77814 8.46434 7.59668H10.0764V6.90641C10.0764 5.98391 9.32858 5.23608 8.40608 5.23608Z" fill="white"/>
<path fill-rule="evenodd" clip-rule="evenodd" d="M3.89745 7.13714C3.89745 4.89473 5.71528 3.0769 7.95768 3.0769C9.07889 3.0769 10.0939 3.53136 10.8287 4.26612C10.1514 3.5888 9.23585 3.14967 8.21856 3.08517C7.53431 3.84244 7.11765 4.8461 7.11765 5.94709C7.11765 6.02922 7.11997 6.1108 7.12454 6.19178C6.86275 6.42268 6.69761 6.76063 6.69761 7.13714V7.41716H9.21776L7.37744 7.41717C7.97662 9.05131 9.54609 10.2173 11.3879 10.2173C11.6019 10.2173 11.8123 10.2016 12.0179 10.1712V11.8974H9.21776V10.2173H6.69761V11.8974H3.89745V8.81724V7.13714Z" fill="white"/>
</svg>
